<svg xmlns="http://www.w3.org/2000/svg" viewBox="0 0 600 600" width="600" height="600" role="img">
  <defs>
    <linearGradient id="g-1" x1="0" y1="0" x2="0.4" y2="1">
      <stop offset="0" stop-color="#f7ece0"/>
      <stop offset="1" stop-color="#efe0cf"/>
    </linearGradient>
  </defs>
  <rect width="600" height="600" fill="url(#g-1)"/>
<path d="M0 468h600v132H0z" fill="#e6d2bd" opacity=".55"/>
  <!-- Fenster -->
  <rect x="330" y="80" width="210" height="250" rx="12" fill="#fffaf4" opacity=".8"/>
  <path d="M435 80v250M330 205h210" stroke="#e6d2bd" stroke-width="8"/>
  <!-- Stuhl: Lehne, Sitz, Fuß -->
  <path d="M150 170h90a40 40 0 0 1 40 40v120h-170V210a40 40 0 0 1 40-40Z" fill="#c0623c"/>
  <rect x="96" y="330" width="198" height="52" rx="26" fill="#dd9370"/>
  <rect x="176" y="382" width="38" height="70" rx="10" fill="#42342b"/>
  <path d="M120 468h150" stroke="#42342b" stroke-width="22" stroke-linecap="round"/>
  <!-- Spiegel -->
  <ellipse cx="195" cy="120" rx="62" ry="52" fill="#fffaf4" opacity=".7"/>

</svg>
