<svg xmlns="http://www.w3.org/2000/svg" viewBox="0 0 600 600" width="600" height="600" role="img">
  <defs>
    <linearGradient id="g-8" x1="0" y1="0" x2="0.4" y2="1">
      <stop offset="0" stop-color="#f7ece0"/>
      <stop offset="1" stop-color="#e6d2bd"/>
    </linearGradient>
  </defs>
  <rect width="600" height="600" fill="url(#g-8)"/>
<path d="M0 468h600v132H0z" fill="#e6d2bd" opacity=".55"/>
  <!-- Farbschale -->
  <path d="M112 300h236l-24 118a34 34 0 0 1-33 28H169a34 34 0 0 1-33-28Z" fill="#fffaf4"/>
  <path d="M126 336h208l-8 40H134Z" fill="#c0623c" opacity=".75"/>
  <!-- Pinsel -->
  <path d="M406 132l44 22-104 208-44-22Z" fill="#6d5140" opacity=".75"/>
  <path d="M302 340l44 22-16 32a26 26 0 0 1-46-22Z" fill="#c0623c"/>
  <!-- Farbkarten -->
  <rect x="392" y="322" width="46" height="124" rx="10" fill="#f0c3a9"/>
  <rect x="446" y="342" width="46" height="104" rx="10" fill="#dd9370"/>
  <rect x="500" y="364" width="46" height="82" rx="10" fill="#6d5140" opacity=".6"/>

</svg>
