<svg xmlns="http://www.w3.org/2000/svg" viewBox="0 0 800 700" width="800" height="700" role="img">
  <defs>
    <linearGradient id="g-hero" x1="0" y1="0" x2="0.4" y2="1">
      <stop offset="0" stop-color="#f7ece0"/>
      <stop offset="1" stop-color="#efe0cf"/>
    </linearGradient>
  </defs>
  <rect width="800" height="700" fill="url(#g-hero)"/>
  <!-- Fensterlicht -->
  <path d="M470 0h330v700H470z" fill="#fffaf4" opacity=".35"/>
  <path d="M520 60h230v300h-230z" fill="#fffaf4" opacity=".55"/>
  <path d="M635 60v300M520 210h230" stroke="#e6d2bd" stroke-width="6" fill="none"/>
  <!-- Boden -->
  <path d="M0 520h800v180H0z" fill="#e6d2bd" opacity=".75"/>
  <path d="M0 520h800" stroke="#6d5140" stroke-width="3" opacity=".2"/>
  <!-- Spiegel -->
  <rect x="90" y="120" width="260" height="330" rx="130" fill="#fffaf4" opacity=".9"/>
  <rect x="112" y="142" width="216" height="286" rx="108" fill="#efe0cf"/>
  <circle cx="220" cy="250" r="70" fill="#fffaf4" opacity=".55"/>
  <!-- Konsole -->
  <rect x="60" y="450" width="320" height="26" rx="13" fill="#6d5140" opacity=".85"/>
  <rect x="150" y="404" width="26" height="46" rx="8" fill="#c0623c"/>
  <rect x="196" y="416" width="20" height="34" rx="7" fill="#dd9370"/>
  <!-- Friseurstuhl -->
  <path d="M470 300c60 0 100 40 100 96v104H470c-56 0-96-40-96-96v-8c0-56 40-96 96-96Z" fill="#c0623c"/>
  <path d="M470 330c44 0 74 30 74 70v70h-74c-40 0-70-30-70-70s30-70 70-70Z" fill="#dd9370" opacity=".55"/>
  <rect x="452" y="500" width="34" height="70" rx="17" fill="#42342b"/>
  <path d="M400 590h140" stroke="#42342b" stroke-width="20" stroke-linecap="round"/>
  <!-- Pflanze -->
  <path d="M700 520c0-60 24-96 52-116-8 40-6 78 8 116Z" fill="#8b9e79"/>
  <path d="M700 520c-30-40-30-84-20-112 26 28 42 66 40 112Z" fill="#8b9e79" opacity=".75"/>
  <path d="M676 520h72l-10 74a12 12 0 0 1-12 11h-28a12 12 0 0 1-12-11Z" fill="#c0623c" opacity=".9"/>
  <!-- Lampe -->
  <path d="M300 0v70" stroke="#6d5140" stroke-width="4"/>
  <path d="M258 70h84l-16 40h-52Z" fill="#c0623c" opacity=".9"/>

</svg>
