<svg xmlns="http://www.w3.org/2000/svg" viewBox="0 0 700 620" width="700" height="620" role="img">
  <defs>
    <linearGradient id="g-innen" x1="0" y1="0" x2="0.4" y2="1">
      <stop offset="0" stop-color="#f7ece0"/>
      <stop offset="1" stop-color="#e6d2bd"/>
    </linearGradient>
  </defs>
  <rect width="700" height="620" fill="url(#g-innen)"/>
  <path d="M0 430h700v190H0z" fill="#e6d2bd" opacity=".7"/>
  <!-- Tresen -->
  <rect x="90" y="300" width="420" height="150" rx="16" fill="#6d5140"/>
  <rect x="90" y="300" width="420" height="28" rx="14" fill="#c0623c" opacity=".85"/>
  <rect x="130" y="356" width="120" height="10" rx="5" fill="#f7ece0" opacity=".45"/>
  <rect x="130" y="382" width="72" height="10" rx="5" fill="#f7ece0" opacity=".3"/>
  <!-- Wandregal -->
  <rect x="120" y="150" width="330" height="12" rx="6" fill="#6d5140" opacity=".8"/>
  <rect x="150" y="104" width="26" height="46" rx="8" fill="#c0623c"/>
  <rect x="186" y="116" width="22" height="34" rx="7" fill="#dd9370"/>
  <rect x="218" y="98" width="24" height="52" rx="8" fill="#f0c3a9"/>
  <rect x="256" y="118" width="20" height="32" rx="7" fill="#c0623c" opacity=".7"/>
  <!-- Schild -->
  <rect x="330" y="86" width="130" height="64" rx="14" fill="#fffaf4" opacity=".85"/>
  <rect x="352" y="108" width="86" height="8" rx="4" fill="#c0623c"/>
  <rect x="352" y="126" width="58" height="7" rx="3.5" fill="#6d5140" opacity=".45"/>
  <!-- Pflanze rechts -->
  <path d="M560 430c-6-70 16-118 46-142-10 48-6 96 12 142Z" fill="#8b9e79"/>
  <path d="M560 430c-34-44-36-92-24-124 28 32 44 74 42 124Z" fill="#8b9e79" opacity=".7"/>
  <path d="M534 430h84l-11 84a13 13 0 0 1-13 12h-36a13 13 0 0 1-13-12Z" fill="#c0623c" opacity=".9"/>

</svg>
